# xmcd CD database file
#
# Track frame offsets:
#	150
#	6072
#	24828
#	49725
#	72543
#	91163
#	111116
#	128101
#	148749
#	168107
#	183780
#	197998
#
# Disc length: 2784 seconds
#
# Revision: 6
# Processed by: cddbd v1.5.1PL2 Copyright (c) Steve Scherf et al.
# Submitted via: CDex 1.51
#
DISCID=9a0ade0c
DTITLE=Juan Luis Guerra y 4.40 - Areito
DYEAR=1992
DGENRE=Merengue
TTITLE0=Areito
TTITLE1=El Costo De la Vida
TTITLE2=Senales De Humo
TTITLE3=Ayer
TTITLE4=Frío Frío
TTITLE5=Rompiendo Fuentes
TTITLE6=Mal De Amor
TTITLE7=Si Saliera Petroleo
TTITLE8=Coronita Da Flotres
TTITLE9=Cuando Te Beso
TTITLE10=Cuando Te Beso (bonus)
TTITLE11=Naboria/Daca Mayanimacana
EXTD=0 YEAR: 1992
EXTT0=
EXTT1=
EXTT2=
EXTT3=
EXTT4=
EXTT5=
EXTT6=
EXTT7=
EXTT8=
EXTT9=
EXTT10=
EXTT11=
PLAYORDER=
